.
 
http://www.scenetime.com    -   SceneTime [ We been having it ] !!!


How come you press harder on a remote control when you know the battery is dead? so you better seed to get speed ;)

        Seed back for speed


...................................NFO:.................................................[img]http://img853.imageshack.us/img853/5140/westc.jpg[/img]

[color=blue][size=5][b]West.Is.West.2010.BDRip.XVID.AC3.HQ.Hive-CM8[/b][/size][/color]


[b]Thx Hive


CM8 Doing It Right The First Time :D


Source Bluray

Video: 720x384 @bitrate 1800 2pass
Audio: English DTS to AC3 5.1 @448
Sample: yes included
Subs: yes english in srt /subs
      subs for foreign parts were already hardcoded[/b]


[url]http://www.imdb.com/title/tt1441956/[/url]


General
Complete name                    : West.Is.West.2010.BDRip.XVID.AC3.HQ.Hive-CM8.avi
Format                           : AVI
Format/Info                      : Audio Video Interleave
File size                        : 1.62 GiB
Duration                         : 1h 42mn
Overall bit rate                 : 2 256 Kbps
Writing application              : Nandub v1.0rc2
Writing library                  : Nandub build 1853/release

Video
ID                               : 0
Format                           : MPEG-4 Visual
Format profile                   : Advanced Simple@L5
Format settings, BVOP            : 1
Format settings, QPel            : Yes
Format settings, GMC             : No warppoints
Format settings, Matrix          : Default (H.263)
Muxing mode                      : Packed bitstream
Codec ID                         : XVID
Codec ID/Hint                    : XviD
Duration                         : 1h 42mn
Bit rate                         : 1 799 Kbps
Width                            : 720 pixels
Height                           : 384 pixels
Display aspect ratio             : 1.850
Frame rate                       : 24.000 fps
Color space                      : YUV
Chroma subsampling               : 4:2:0
Bit depth                        : 8 bits
Scan type                        : Progressive
Compression mode                 : Lossy
Bits/(Pixel*Frame)               : 0.271
Stream size                      : 1.29 GiB (80%)
Writing library                  : XviD 1.2.1 (UTC 2008-12-04)

Audio
ID                               : 1
Format                           : AC-3
Format/Info                      : Audio Coding 3
Mode extension                   : CM (complete main)
Codec ID                         : 2000
Duration                         : 1h 42mn
Bit rate mode                    : Constant
Bit rate                         : 448 Kbps
Channel(s)                       : 6 channels
Channel positions                : Front: L C R, Side: L R, LFE
Sampling rate                    : 48.0 KHz
Bit depth                        : 16 bits
Compression mode                 : Lossy
Stream size                      : 329 MiB (20%)
Alignment                        : Split accross interleaves
Interleave, duration             : 42 ms (1.00 video frame)
Interleave, preload duration     : 500 ms


Aqib Khan        ...    Sajid Khan
Om Puri          ...    George / Jahangir Khan
Linda Bassett    ...    Ella Khan
Robert Pugh      ...    Mr. Jordan
Thomas Russell   ...    Hughsy (Bully)
Jimi Mistry      ...    Tariq Khan
Vanessa Hehir    ...    Esther


Manchester, North of England, 1975. The now much diminished, but
still claustrophobic and dysfunctional, Khan family continues to
struggle for survival. 


[img]http://img405.imageshack.us/img405/9369/wewep.png[/img]
[img]http://img805.imageshack.us/img805/56/wewewewewewe.png[/img]
[img]http://img802.imageshack.us/img802/7151/wewewe.png[/img]
[img]http://img607.imageshack.us/img607/7043/wewewewe.png[/img]
[img]http://img694.imageshack.us/img694/4264/wewewewewe.png[/img]
[img]http://img402.imageshack.us/img402/1692/wewewewewewewe.png[/img]
[img]http://img39.imageshack.us/img39/5352/wewewewewewewewe.png[/img]
[img]http://img40.imageshack.us/img40/1222/wewewewewewewewewe.png[/img]
[img]http://img202.imageshack.us/img202/3199/75603747.png[/img]



Greetz

ViSiON,SANTi,MAGNET,THC,T0XiC,iNK,LKRG,IMAGiNE,WBZ,FLAWL3SS,NOVA
D2U,Vik,OneTwo,Rapeseed,SAFC,goldadvance,MEMORY100,KaN1vE,Unevano,
Pinnz,Wayne,Mr Hive and all P2P groups 
Great Work Guys :D

FYS

CM8@hushmail.com